<svg xmlns="http://www.w3.org/2000/svg" width="390" height="844" viewBox="0 0 390 844" fill="none">
  <defs>
    <linearGradient id="rb" x1="0" y1="0" x2="390" y2="844" gradientUnits="userSpaceOnUse">
      <stop stop-color="#0B0D17"/>
      <stop offset="1" stop-color="#12151F"/>
    </linearGradient>
  </defs>
  <rect width="390" height="844" fill="url(#rb)"/>
  <text x="32" y="88" fill="#F8FAFC" font-family="system-ui,sans-serif" font-size="22" font-weight="700">Rehab &amp; Training</text>
  <text x="32" y="116" fill="#64748B" font-family="system-ui,sans-serif" font-size="13">0 today · 0 this week</text>
  <rect x="24" y="140" width="342" height="40" rx="20" fill="#1C1E2D"/>
  <rect x="28" y="144" width="88" height="32" rx="16" fill="#6C5CE7"/>
  <text x="52" y="166" fill="#fff" font-family="system-ui,sans-serif" font-size="12" font-weight="600">Program</text>
  <text x="140" y="166" fill="#64748B" font-family="system-ui,sans-serif" font-size="12">Log</text>
  <text x="190" y="166" fill="#64748B" font-family="system-ui,sans-serif" font-size="12">Goals</text>
  <text x="248" y="166" fill="#64748B" font-family="system-ui,sans-serif" font-size="12">Tips</text>
  <rect x="24" y="196" width="56" height="32" rx="16" fill="#6C5CE7"/>
  <text x="36" y="216" fill="#fff" font-family="system-ui,sans-serif" font-size="11" font-weight="600">All</text>
  <text x="96" y="216" fill="#94A3B8" font-family="system-ui,sans-serif" font-size="11">Standing</text>
  <rect x="24" y="244" width="342" height="36" rx="12" fill="#1A2744" stroke="rgba(45,212,191,0.25)"/>
  <text x="44" y="266" fill="#94A3B8" font-family="system-ui,sans-serif" font-size="12">Tap an exercise to add it to your log.</text>
  <g>
    <rect x="24" y="296" width="342" height="120" rx="20" fill="#151A23" stroke="rgba(255,255,255,0.06)"/>
    <rect x="44" y="316" width="44" height="44" rx="12" fill="#6C5CE7"/>
    <text x="104" y="338" fill="#F8FAFC" font-family="system-ui,sans-serif" font-size="16" font-weight="600">Heel raise</text>
    <rect x="300" y="312" width="48" height="24" rx="8" fill="rgba(45,212,191,0.2)"/>
    <text x="312" y="328" fill="#2DD4BF" font-family="system-ui,sans-serif" font-size="11" font-weight="600">Easy</text>
    <text x="104" y="362" fill="#64748B" font-family="system-ui,sans-serif" font-size="12">10 min · 3×15 · Standing</text>
    <rect x="310" y="352" width="36" height="36" rx="10" fill="#6C5CE7"/>
    <text x="322" y="376" fill="#fff" font-family="system-ui,sans-serif" font-size="18" text-anchor="middle">+</text>
  </g>
  <g>
    <rect x="24" y="432" width="342" height="120" rx="20" fill="#151A23" stroke="rgba(255,255,255,0.06)"/>
    <rect x="44" y="452" width="44" height="44" rx="12" fill="#6C5CE7"/>
    <text x="104" y="474" fill="#F8FAFC" font-family="system-ui,sans-serif" font-size="16" font-weight="600">Wall squat</text>
    <rect x="286" y="448" width="56" height="24" rx="8" fill="rgba(245,158,11,0.2)"/>
    <text x="298" y="464" fill="#FBBF24" font-family="system-ui,sans-serif" font-size="11" font-weight="600">Medium</text>
    <text x="104" y="498" fill="#64748B" font-family="system-ui,sans-serif" font-size="12">Build strength with control</text>
  </g>
</svg>
