<svg xmlns="http://www.w3.org/2000/svg" width="390" height="844" viewBox="0 0 390 844" fill="none">
  <defs>
    <linearGradient id="mb" x1="0" y1="0" x2="390" y2="844" gradientUnits="userSpaceOnUse">
      <stop stop-color="#0B0D17"/>
      <stop offset="1" stop-color="#151A23"/>
    </linearGradient>
  </defs>
  <rect width="390" height="844" fill="url(#mb)"/>
  <rect x="24" y="64" width="342" height="72" rx="20" fill="#151A23" stroke="rgba(255,255,255,0.06)"/>
  <rect x="44" y="84" width="40" height="40" rx="12" fill="#D4AF37" opacity="0.9"/>
  <text x="96" y="104" fill="#F8FAFC" font-family="system-ui,sans-serif" font-size="17" font-weight="700">Food &amp; Water</text>
  <text x="96" y="124" fill="#64748B" font-family="system-ui,sans-serif" font-size="12">0 meals</text>
  <rect x="24" y="152" width="342" height="44" rx="22" fill="#1C1E2D"/>
  <rect x="218" y="156" width="100" height="36" rx="18" fill="#7B61FF"/>
  <text x="238" y="180" fill="#fff" font-family="system-ui,sans-serif" font-size="12" font-weight="600">Meal plan</text>
  <text x="40" y="180" fill="#64748B" font-family="system-ui,sans-serif" font-size="12">Food</text>
  <text x="88" y="180" fill="#64748B" font-family="system-ui,sans-serif" font-size="12">Water</text>
  <text x="152" y="180" fill="#64748B" font-family="system-ui,sans-serif" font-size="12">Recipes</text>
  <text x="32" y="240" fill="#F8FAFC" font-family="system-ui,sans-serif" font-size="18" font-weight="700">Weekly meal plan</text>
  <text x="32" y="288" fill="#94A3B8" font-family="system-ui,sans-serif" font-size="13">This week</text>
  <g transform="translate(24 308)">
    <rect width="44" height="36" rx="18" fill="#6C5CE7"/>
    <text x="14" y="24" fill="#fff" font-family="system-ui,sans-serif" font-size="11" font-weight="600">Mon</text>
    <rect x="50" width="44" height="36" rx="18" fill="#6C5CE7"/>
    <text x="60" y="24" fill="#fff" font-family="system-ui,sans-serif" font-size="11" font-weight="600">Tue</text>
    <rect x="100" width="44" height="36" rx="18" fill="#1C1E2D"/>
    <text x="108" y="24" fill="#94A3B8" font-family="system-ui,sans-serif" font-size="11">Wed</text>
    <rect x="150" width="44" height="36" rx="18" fill="#1C1E2D"/>
    <text x="156" y="24" fill="#94A3B8" font-family="system-ui,sans-serif" font-size="11">Thu</text>
    <rect x="200" width="44" height="36" rx="18" fill="#1C1E2D"/>
    <text x="208" y="24" fill="#94A3B8" font-family="system-ui,sans-serif" font-size="11">Fri</text>
    <rect x="250" width="44" height="36" rx="18" fill="#1C1E2D"/>
    <text x="258" y="24" fill="#94A3B8" font-family="system-ui,sans-serif" font-size="11">Sat</text>
    <rect x="300" width="44" height="36" rx="18" fill="#1C1E2D"/>
    <text x="306" y="24" fill="#94A3B8" font-family="system-ui,sans-serif" font-size="11">Sun</text>
  </g>
  <rect x="24" y="368" width="200" height="32" rx="16" fill="#1C1E2D"/>
  <text x="52" y="388" fill="#94A3B8" font-family="system-ui,sans-serif" font-size="11">Tuesday, March 24th</text>
  <text x="195" y="460" text-anchor="middle" fill="#64748B" font-family="system-ui,sans-serif" font-size="15">No meals planned.</text>
  <rect x="0" y="760" width="390" height="84" fill="#0B0D17" stroke="rgba(255,255,255,0.06)"/>
  <text x="48" y="812" fill="#6C5CE7" font-family="system-ui,sans-serif" font-size="10" font-weight="600" text-anchor="middle">Food</text>
</svg>
