<svg xmlns="http://www.w3.org/2000/svg" width="390" height="844" viewBox="0 0 390 844" fill="none">
  <defs>
    <linearGradient id="jb" x1="0" y1="0" x2="0" y2="844" gradientUnits="userSpaceOnUse">
      <stop stop-color="#0D1117"/>
      <stop offset="1" stop-color="#0B0E14"/>
    </linearGradient>
  </defs>
  <rect width="390" height="844" fill="url(#jb)"/>
  <text x="32" y="88" fill="#F8FAFC" font-family="system-ui,sans-serif" font-size="20" font-weight="700">Energy level today</text>
  <g transform="translate(24 112)">
    <rect width="62" height="44" rx="12" fill="#F43F5E" opacity="0.85"/>
    <rect x="70" width="62" height="44" rx="12" fill="#FB923C" opacity="0.85"/>
    <rect x="140" width="62" height="44" rx="12" fill="#EAB308" opacity="0.75"/>
    <rect x="210" width="62" height="44" rx="12" fill="#0D9488" opacity="0.9"/>
    <rect x="280" width="62" height="44" rx="12" fill="#6C5CE7" opacity="0.95"/>
  </g>
  <text x="32" y="200" fill="#F8FAFC" font-family="system-ui,sans-serif" font-size="18" font-weight="700">Routines</text>
  <rect x="24" y="220" width="342" height="52" rx="16" fill="#151A23" stroke="rgba(255,255,255,0.06)"/>
  <rect x="24" y="284" width="342" height="52" rx="16" fill="#151A23" stroke="rgba(255,255,255,0.06)"/>
  <rect x="24" y="348" width="342" height="52" rx="16" fill="#151A23" stroke="rgba(255,255,255,0.06)"/>
  <text x="32" y="420" fill="#F8FAFC" font-family="system-ui,sans-serif" font-size="16" font-weight="700">Cleaning checklist</text>
  <rect x="24" y="436" width="260" height="40" rx="12" fill="#1C1E2D"/>
  <rect x="292" y="436" width="74" height="40" rx="12" fill="#7B61FF"/>
  <text x="318" y="462" fill="#fff" font-family="system-ui,sans-serif" font-size="22" text-anchor="middle">+</text>
  <rect x="24" y="492" width="342" height="64" rx="16" fill="#151A23" stroke="rgba(255,255,255,0.06)"/>
  <text x="48" y="520" fill="#F8FAFC" font-family="system-ui,sans-serif" font-size="14" font-weight="600">Vacuum</text>
  <text x="48" y="540" fill="#64748B" font-family="system-ui,sans-serif" font-size="11">Tap to mark as done</text>
  <text x="32" y="600" fill="#F8FAFC" font-family="system-ui,sans-serif" font-size="16" font-weight="700">Today's notes</text>
  <rect x="24" y="612" width="342" height="100" rx="18" fill="#151A23" stroke="rgba(255,255,255,0.06)"/>
  <text x="44" y="648" fill="#475569" font-family="system-ui,sans-serif" font-size="13">How did the day go?</text>
</svg>
